<svg width="114" height="106" viewBox="0 0 114 106" fill="none" xmlns="http://www.w3.org/2000/svg">
<path d="M74.4034 30.4909C73.2572 29.4307 71.737 28.7922 70.1238 28.6935C68.5106 28.5947 66.9134 29.0422 65.6276 29.9535C64.3418 30.8647 63.4542 32.178 63.129 33.6505C62.8038 35.123 63.0629 36.6552 63.8584 37.9639C64.6706 37.4811 66.5545 36.0814 66.457 36.7555C66.3487 37.4302 64.6382 38.7897 64.6382 38.7897C64.6473 38.8564 64.6507 38.9237 64.649 38.9911C65.2396 39.6202 65.9605 40.1321 66.7686 40.4964C67.5768 40.8606 68.4556 41.0697 69.3526 41.1111C70.4758 41.163 71.595 40.9508 72.6066 40.494C73.6183 40.0373 74.4897 39.3508 75.1405 38.498C75.7913 37.6452 76.2003 36.6536 76.3298 35.6149C76.4593 34.5762 76.3051 33.5239 75.8814 32.5553C75.5428 31.7819 75.0401 31.0798 74.4034 30.4909Z" fill="#CA3466"/>
<path d="M59.146 61.3926C58.3332 60.7005 57.431 60.1052 56.4601 59.6203C50.9596 56.8298 45.2881 54.3415 39.4741 52.1679C39.3827 51.8512 39.2847 51.5361 39.18 51.2229L33.0183 49.5614C33.0183 49.5614 25.7736 54.8879 27.5389 59.6605C28.5136 62.3105 32.3685 65.8531 45.3742 68.6319C44.0443 74.9214 42.342 81.1379 40.275 87.2529C40.7794 86.2369 43.663 85.6353 47.0745 85.991C50.7453 86.3736 53.6044 87.6122 53.4745 88.7703L53.5172 88.8206C54.3294 81.9141 54.6071 74.9622 54.3483 68.0187L65.4883 83.3298C64.8613 82.5051 66.536 80.1355 69.2845 77.9768C72.0775 75.7816 74.9156 74.6436 75.6304 75.419L75.6737 75.4392L59.146 61.3926Z" fill="#CA3466"/>
<path d="M101.065 57.6068C100.82 57.2335 100.461 56.9362 100.034 56.7525C99.607 56.5688 99.1311 56.5069 98.6664 56.5747C98.2016 56.6424 97.7689 56.8368 97.423 57.1332C97.0771 57.4296 96.8334 57.8148 96.7229 58.2399C96.6123 58.6651 96.6398 59.1112 96.8019 59.5218C96.964 59.9324 97.2534 60.2891 97.6336 60.5468C98.0137 60.8045 98.4674 60.9516 98.9375 60.9695C99.4075 60.9874 99.8727 60.8753 100.274 60.6474C100.813 60.3419 101.199 59.8498 101.348 59.2795C101.421 58.9971 101.434 58.704 101.385 58.4169C101.337 58.1299 101.228 57.8546 101.065 57.6068Z" fill="#777777"/>
<path d="M80.8688 69.9108C81.1349 70.3156 81.534 70.6301 82.0071 70.8079C82.4802 70.9856 83.0022 71.0172 83.4961 70.898C83.99 70.7787 84.4296 70.515 84.7499 70.1456C85.0702 69.7763 85.2543 69.321 85.275 68.8469C85.2957 68.3729 85.1518 67.9052 84.8647 67.5129C84.5777 67.1207 84.1625 66.8247 83.6807 66.6686C83.1988 66.5126 82.6757 66.5048 82.1887 66.6463C81.7017 66.7879 81.2765 67.0713 80.976 67.4547C80.7913 67.6892 80.6583 67.9553 80.5849 68.2377C80.5114 68.5202 80.4988 68.8134 80.5479 69.1004C80.5964 69.3876 80.7058 69.6627 80.8688 69.9108Z" fill="#777777"/>
<path d="M95.8019 22.0629C95.9893 22.2295 96.2256 22.3408 96.481 22.3826C96.7364 22.4244 96.9994 22.3949 97.2367 22.2978C97.4741 22.2007 97.6752 22.0404 97.8145 21.8371C97.9539 21.6337 98.0254 21.3966 98.0198 21.1555C98.0144 20.9142 97.9319 20.6799 97.7828 20.4823C97.6337 20.2848 97.4247 20.1329 97.1825 20.0462C96.8998 19.9438 96.5877 19.9358 96.2993 20.0236C96.011 20.1113 95.7643 20.2894 95.6014 20.5273C95.4385 20.7653 95.3695 21.0484 95.406 21.3285C95.4426 21.6085 95.5825 21.868 95.8019 22.0629Z" fill="#777777"/>
<path d="M15.7976 23.231C15.69 23.3873 15.6328 23.5691 15.6328 23.7547C15.6328 23.9403 15.69 24.122 15.7976 24.2783C15.9006 24.3907 16.031 24.4786 16.1779 24.5346C16.3249 24.5907 16.4841 24.6133 16.6423 24.6005L15.7976 23.231Z" fill="#777777"/>
<path d="M20.8763 20.9154C20.7835 20.7843 20.6494 20.683 20.4924 20.6253C20.3354 20.5676 20.1631 20.5564 19.999 20.5932C20.2914 21.0262 20.573 21.4692 20.8763 21.9017C20.9652 21.7505 21.0118 21.5809 21.0118 21.4086C21.0118 21.2362 20.9652 21.0666 20.8763 20.9154Z" fill="#777777"/>
<path d="M75.6926 75.4286C75.2161 74.905 73.7865 75.2373 72.0537 76.1738L74.4255 78.4793C75.6168 77.1204 76.1475 75.9422 75.6926 75.4286Z" fill="#777777"/>
<path d="M67.2238 79.8991C65.7725 81.4398 65.0686 82.8194 65.5782 83.3833C66.0974 83.9568 67.7544 83.5042 69.693 82.3562L67.2238 79.8991Z" fill="#777777"/>
<path d="M43.0859 26.9866C42.727 26.6553 42.2555 26.4501 41.7519 26.406C41.2484 26.3619 40.744 26.4817 40.3248 26.7449C39.5256 26.578 38.6906 26.6412 37.9308 26.9261C37.6881 26.5487 37.3443 26.2363 36.933 26.0192C36.5217 25.8022 36.0569 25.688 35.584 25.6878C35.1111 25.6876 34.6462 25.8014 34.2347 26.018C33.8231 26.2347 33.479 26.5468 33.2359 26.924C32.9928 27.3012 32.859 27.7305 32.8475 28.1701C32.836 28.6097 32.9473 29.0446 33.1704 29.4323C33.3936 29.82 33.721 30.1473 34.1208 30.3822C34.5205 30.6172 34.979 30.7518 35.4513 30.7729C35.5482 31.6258 35.957 32.4219 36.6096 33.028C36.6096 33.028 38.6673 35.3441 37.3785 36.5117C37.8109 36.1976 38.1625 35.7979 38.408 35.3416C38.6534 34.8854 38.7864 34.384 38.7972 33.8739C38.8071 33.7738 38.7885 33.6731 38.7431 33.5819C37.4224 32.1827 38.7648 31.0448 39.3496 32.021C39.6312 32.4943 39.8153 32.4943 39.9452 32.2426C40.4434 30.9944 42.7177 29.2926 43.2695 31.5181V31.508C43.3567 31.932 43.3971 32.3645 43.3886 32.7964C43.3886 32.5452 43.3994 31.7597 43.3994 31.0146C43.4883 30.5299 43.4736 30.0337 43.3561 29.5544C43.6404 29.1643 43.7689 28.6941 43.7196 28.2251C43.6703 27.7562 43.4461 27.318 43.0859 26.9866Z" fill="#777777"/>
<path d="M53.5153 88.8005C53.6134 88.015 52.324 87.1994 50.353 86.6275L49.9414 90.2723C51.9883 90.1197 53.4184 89.5759 53.5153 88.8005Z" fill="#777777"/>
<path d="M40.2167 87.4209C40.1192 88.2366 41.5277 89.1026 43.66 89.6665L44.116 85.921C41.9062 86.0514 40.325 86.6052 40.2167 87.4209Z" fill="#777777"/>
<path d="M80.8041 82.9402C77.8545 83.8584 74.7638 84.3238 71.6533 84.3182L73.0612 85.7275C77.1691 87.0794 81.5873 87.4024 85.872 86.664C84.3151 85.2745 82.6179 84.0275 80.8041 82.9402Z" fill="#777777"/>
<path d="M50.3964 97.8423C47.8355 96.0858 45.4896 94.0734 43.4008 91.8411L43.1494 93.863C43.7992 95.5447 45.1313 99.0284 50.145 103.35C50.6996 101.88 50.6238 99.8059 50.3964 97.8423Z" fill="#777777"/>
<path d="M42.4047 43.4394C42.2817 44.219 42.0998 44.9896 41.8604 45.7454C42.2968 46.0462 42.7574 46.3155 43.238 46.551C42.9781 45.5138 42.6857 44.2853 42.4047 43.4394Z" fill="#777777"/>
<path d="M39.665 35.7268C39.8708 36.2303 40.064 36.7534 40.2499 37.3581C40.2276 36.9866 40.3257 36.6174 40.5314 36.2981C40.2026 36.1665 39.9074 35.9718 39.665 35.7268Z" fill="#777777"/>
<path d="M45.3935 68.6419L44.0723 74.6336L46.6065 68.8942L45.3935 68.6419Z" fill="#777777"/>
<path d="M30.623 40.0681L31.5533 43.2168L32.4083 41.3846C32.4083 41.3846 30.7228 40.1396 30.623 40.0681Z" fill="#777777"/>
<path d="M55.1388 18.0052L49.7568 16.7062L51.7821 9.4669L54.9438 8.42969L57.164 10.7755L55.1388 18.0052Z" fill="#777777"/>
<path d="M80.5438 14.1892C80.6196 14.4523 80.6096 14.7304 80.515 14.9881C80.4205 15.2459 80.2458 15.4718 80.0129 15.637C79.7801 15.8023 79.4998 15.8995 79.2074 15.9163C78.9151 15.9331 78.624 15.8688 78.371 15.7315C78.1181 15.5946 77.9144 15.3912 77.7856 15.1469C77.6576 14.9025 77.61 14.6283 77.649 14.3588C77.6879 14.0893 77.8116 13.8365 78.0045 13.6322C78.1983 13.4281 78.4525 13.2824 78.7352 13.2124C79.1143 13.1197 79.5175 13.1705 79.8565 13.3535C80.1954 13.5366 80.4426 13.8371 80.5438 14.1892Z" stroke="#120071" stroke-width="0.25" stroke-linecap="round" stroke-linejoin="round"/>
<path d="M85.1893 16.6558C85.2867 16.9866 85.2475 17.3394 85.0794 17.6447C84.9114 17.95 84.6266 18.1859 84.2811 18.306C83.9356 18.426 83.5542 18.4216 83.212 18.2936C82.8698 18.1656 82.5914 17.9232 82.4316 17.6141C82.3356 17.4314 82.2843 17.2313 82.2814 17.028C82.2785 16.8247 82.324 16.6233 82.4148 16.4384C82.5055 16.2534 82.6392 16.0895 82.8062 15.9582C82.9732 15.827 83.1694 15.7319 83.3807 15.6796C83.7597 15.5868 84.1628 15.6375 84.5018 15.8205C84.8407 16.0034 85.0879 16.3038 85.1893 16.6558Z" stroke="#120071" stroke-width="0.25" stroke-linecap="round" stroke-linejoin="round"/>
<path d="M79.0273 19.5862L83.8353 11.9033" stroke="#120071" stroke-width="0.25" stroke-linecap="round" stroke-linejoin="round"/>
<path d="M101.064 57.6068C100.819 57.2335 100.46 56.9362 100.033 56.7525C99.606 56.5687 99.1301 56.5069 98.6654 56.5746C98.2006 56.6424 97.7679 56.8368 97.422 57.1332C97.0761 57.4296 96.8324 57.8147 96.7219 58.2399C96.6113 58.665 96.6389 59.1111 96.801 59.5217C96.9631 59.9324 97.2525 60.2891 97.6326 60.5467C98.0127 60.8044 98.4665 60.9515 98.9365 60.9694C99.4065 60.9873 99.8717 60.8753 100.273 60.6474C100.812 60.3418 101.198 59.8498 101.347 59.2794C101.42 58.997 101.433 58.7039 101.384 58.4169C101.336 58.1299 101.227 57.8546 101.064 57.6068Z" stroke="#120071" stroke-width="0.25" stroke-linecap="round" stroke-linejoin="round"/>
<path d="M80.8688 69.9108C81.1349 70.3156 81.534 70.6301 82.0071 70.8079C82.4802 70.9856 83.0022 71.0172 83.4961 70.898C83.99 70.7787 84.4296 70.515 84.7499 70.1456C85.0702 69.7763 85.2543 69.321 85.275 68.8469C85.2957 68.3729 85.1518 67.9052 84.8647 67.5129C84.5777 67.1207 84.1625 66.8247 83.6807 66.6686C83.1988 66.5126 82.6757 66.5048 82.1887 66.6463C81.7017 66.7879 81.2765 67.0713 80.976 67.4547C80.7913 67.6892 80.6583 67.9553 80.5849 68.2377C80.5114 68.5202 80.4988 68.8134 80.5479 69.1004C80.5964 69.3876 80.7058 69.6627 80.8688 69.9108Z" stroke="#120071" stroke-width="0.25" stroke-linecap="round" stroke-linejoin="round"/>
<path d="M97.0467 60.0533L85.0049 67.7362" stroke="#120071" stroke-width="0.25" stroke-linecap="round" stroke-linejoin="round"/>
<path d="M98.6824 56.5797L91.8926 25.2047L96.7114 21.1873" stroke="#120071" stroke-width="0.25" stroke-linecap="round" stroke-linejoin="round"/>
<path d="M97.3934 50.5986L73.5264 62.7118L60.7373 52.0285L93.4952 32.6252L97.3934 50.5986Z" stroke="#120071" stroke-width="0.25" stroke-linecap="round" stroke-linejoin="round"/>
<path d="M95.801 22.0629C95.9884 22.2295 96.2247 22.3408 96.48 22.3826C96.7354 22.4244 96.9984 22.3949 97.2358 22.2978C97.4731 22.2007 97.6742 22.0404 97.8136 21.8371C97.9529 21.6337 98.0244 21.3966 98.0188 21.1555C98.0134 20.9142 97.9309 20.6799 97.7818 20.4823C97.6327 20.2848 97.4237 20.1329 97.1815 20.0462C96.8988 19.9438 96.5867 19.9358 96.2984 20.0236C96.01 20.1113 95.7634 20.2894 95.6005 20.5273C95.4376 20.7653 95.3685 21.0484 95.4051 21.3285C95.4416 21.6085 95.5815 21.868 95.801 22.0629Z" stroke="#120071" stroke-width="0.25" stroke-linecap="round" stroke-linejoin="round"/>
<path d="M61.2246 43.831C61.4526 43.7611 65.3856 42.5463 67.5396 40.801" stroke="#120071" stroke-width="0.25" stroke-linecap="round" stroke-linejoin="round"/>
<path d="M66.3905 41.1238C66.3715 40.8283 66.3251 40.5348 66.252 40.2466" stroke="#120071" stroke-width="0.25" stroke-linecap="round" stroke-linejoin="round"/>
<path d="M64.6465 38.989C64.7439 39.0997 64.8488 39.201 64.9605 39.3112C66.1616 40.4258 67.7732 41.0747 69.4692 41.1266C71.1652 41.1784 72.8191 40.6295 74.0964 39.5907C75.3737 38.5519 76.179 37.1008 76.3495 35.531C76.52 33.9611 76.0429 32.3896 75.0148 31.1344C73.9888 29.8787 72.4885 29.0319 70.8169 28.7653C69.1453 28.4987 67.4273 28.8321 66.0099 29.6981C64.5923 30.5637 63.5808 31.8973 63.18 33.4296C62.7791 34.9618 63.0186 36.5784 63.8502 37.9528" stroke="#120071" stroke-width="0.25" stroke-linecap="round" stroke-linejoin="round"/>
<path d="M31.5641 43.2883L32.398 41.3957L30.623 40.0691" stroke="#120071" stroke-width="0.25" stroke-linecap="round" stroke-linejoin="round"/>
<path d="M40.2509 37.4037L39.6318 35.7077C39.9209 35.9213 40.2295 36.1111 40.5541 36.2748" stroke="#120071" stroke-width="0.25" stroke-linecap="round" stroke-linejoin="round"/>
<path d="M41.5268 39.2508C39.6749 39.2206 37.7472 37.9618 36.1016 36.5526" stroke="#120071" stroke-width="0.25" stroke-linecap="round" stroke-linejoin="round"/>
<path d="M36.0909 36.5526L35.7227 39.0997L39.0794 38.8379L41.2995 41.1037L41.527 39.2508" stroke="#120071" stroke-width="0.25" stroke-linecap="round" stroke-linejoin="round"/>
<path d="M19.9987 20.5932C20.1629 20.5578 20.3347 20.5697 20.4913 20.6273C20.648 20.6848 20.7822 20.7853 20.876 20.9154C21.3439 21.518 20.5727 22.7577 19.1762 23.6841C17.7797 24.6106 16.2635 24.8719 15.8081 24.2671C15.7007 24.1108 15.6436 23.9291 15.6436 23.7435C15.6436 23.5579 15.7007 23.3762 15.8081 23.2198" stroke="#120071" stroke-width="0.25" stroke-linecap="round" stroke-linejoin="round"/>
<path d="M62.6541 41.2446C63.2281 40.8821 64.7768 39.855 64.636 38.7775C64.636 38.7775 66.346 37.418 66.4549 36.7439C66.5638 36.0697 64.636 37.4885 63.8329 37.9629C62.4844 38.7689 61.0808 39.4921 59.6309 40.1279" stroke="#120071" stroke-width="0.25" stroke-linecap="round" stroke-linejoin="round"/>
<path d="M42.4043 43.4393L43.2376 46.551" stroke="#120071" stroke-width="0.25" stroke-linecap="round" stroke-linejoin="round"/>
<path d="M43.3892 32.7964C43.3892 32.5447 43.4 31.7598 43.4 31.0146C43.4883 30.5296 43.4741 30.0341 43.3567 29.5544C43.6378 29.1638 43.7643 28.6945 43.7145 28.2268C43.6647 27.759 43.4417 27.3219 43.0836 26.9901C42.7256 26.6583 42.2546 26.4526 41.7514 26.4079C41.2482 26.3633 40.7439 26.4826 40.3248 26.7454C39.5256 26.578 38.6904 26.6413 37.9308 26.9267C37.6881 26.5493 37.3443 26.2368 36.933 26.0198C36.5217 25.8028 36.0569 25.6886 35.584 25.6884C35.1111 25.6881 34.6462 25.8019 34.2347 26.0186C33.8231 26.2352 33.479 26.5474 33.2359 26.9245C32.9928 27.3017 32.859 27.7311 32.8475 28.1707C32.836 28.6103 32.9473 29.0451 33.1704 29.4328C33.3936 29.8205 33.721 30.1478 34.1208 30.3828C34.5205 30.6177 34.979 30.7523 35.4513 30.7734C35.5481 31.6264 35.957 32.4225 36.6096 33.0286C36.6096 33.0286 38.7596 35.4486 37.2879 36.5886" stroke="#120071" stroke-width="0.25" stroke-linecap="round" stroke-linejoin="round"/>
<path d="M69.6931 82.3562C67.7551 83.5042 66.089 83.9552 65.5669 83.3833C64.5409 82.2571 67.9854 79.0373 69.379 77.9434C70.69 76.9147 74.6749 74.3065 75.6923 75.4285C76.1483 75.9315 75.6165 77.1304 74.4252 78.4898" stroke="#120071" stroke-width="0.25" stroke-linecap="round" stroke-linejoin="round"/>
<path d="M80.8031 82.9402C77.8536 83.8587 74.7629 84.3241 71.6523 84.3182" stroke="#120071" stroke-width="0.25" stroke-linecap="round" stroke-linejoin="round"/>
<path d="M72.0532 76.1838L74.8149 78.8625C75.9389 80.0618 77.2758 81.0732 78.7673 81.8527C81.3725 83.1349 83.7681 84.7555 85.882 86.6656C81.5974 87.404 77.1792 87.0811 73.0713 85.7291L67.2236 79.8991" stroke="#120071" stroke-width="0.25" stroke-linecap="round" stroke-linejoin="round"/>
<path d="M49.9405 90.2701C51.9873 90.1196 53.4226 89.5753 53.5144 88.8005C53.6962 87.2566 49.4235 86.3015 47.5687 86.0704C45.3371 85.7927 40.4123 85.7779 40.2157 87.4209C40.1182 88.2365 41.5267 89.1025 43.6591 89.6665" stroke="#120071" stroke-width="0.25" stroke-linecap="round" stroke-linejoin="round"/>
<path d="M43.4004 91.8411C45.481 94.0807 47.8279 96.0939 50.396 97.8423" stroke="#120071" stroke-width="0.25" stroke-linecap="round" stroke-linejoin="round"/>
<path d="M44.1231 85.9501L43.1484 93.8551C43.7982 95.5362 45.1303 99.0205 50.144 103.342C50.9472 101.176 50.4051 97.626 50.0249 95.3576C49.7583 93.7922 49.7146 92.2008 49.895 90.6247C49.944 90.205 49.867 90.9051 50.3481 86.6407" stroke="#120071" stroke-width="0.25" stroke-linecap="round" stroke-linejoin="round"/>
<path d="M43.8115 75.3883L46.584 68.864L45.3608 68.6107" stroke="#120071" stroke-width="0.25" stroke-linecap="round" stroke-linejoin="round"/>
<path d="M40.2793 87.2068C42.3657 81.1065 44.0627 74.897 45.3614 68.6107C32.3546 65.8356 28.5031 62.2782 27.5364 59.6404C25.7694 54.8704 33.0158 49.5413 33.0158 49.5413" stroke="#120071" stroke-width="0.25" stroke-linecap="round" stroke-linejoin="round"/>
<path d="M38.5381 54.6562C43.4502 57.1521 48.0921 60.0824 52.3993 63.4066C52.9686 63.8323 53.4339 64.3658 53.7643 64.9717C54.0947 65.5775 54.2827 66.2418 54.3157 66.9205C54.6456 74.2219 54.3815 81.536 53.5257 88.8004" stroke="#120071" stroke-width="0.25" stroke-linecap="round" stroke-linejoin="round"/>
<path d="M39.1768 51.2028C39.6524 52.5914 39.9718 54.0221 40.1298 55.472" stroke="#120071" stroke-width="0.25" stroke-linecap="round" stroke-linejoin="round"/>
<path d="M65.4521 83.2138L54.3594 67.9678" stroke="#120071" stroke-width="0.25" stroke-linecap="round" stroke-linejoin="round"/>
<path d="M39.459 52.1393C45.2784 54.3218 50.9585 56.8128 56.4712 59.6001C57.4436 60.0824 58.3465 60.6781 59.157 61.3724L75.573 75.321" stroke="#120071" stroke-width="0.25" stroke-linecap="round" stroke-linejoin="round"/>
<path d="M20.865 21.9017C20.865 21.9017 18.2014 18.5791 18.6562 16.1422C19.1219 13.6454 18.5844 13.5982 17.4108 15.8507C16.6339 17.3421 16.3711 20.8248 16.3711 20.8248" stroke="#120071" stroke-width="0.25" stroke-linecap="round" stroke-linejoin="round"/>
<path d="M16.6438 24.6005C16.6438 24.6005 14.2578 20.7962 12.9513 18.1875C11.9738 16.2355 13.2329 17.0093 13.5903 17.6639" stroke="#120071" stroke-width="0.25" stroke-linecap="round" stroke-linejoin="round"/>
<path d="M15.4836 16.1322C15.321 15.4033 15.2339 14.6616 15.2236 13.9173C15.2236 11.6817 15.8113 11.792 16.3283 13.6857C16.5695 14.5757 16.8623 15.4529 17.2055 16.3134" stroke="#120071" stroke-width="0.25" stroke-linecap="round" stroke-linejoin="round"/>
<path d="M15.9271 15.7501C14.9721 16.7251 14.4062 17.9755 14.3242 19.2921" stroke="#120071" stroke-width="0.25" stroke-linecap="round" stroke-linejoin="round"/>
<path d="M15.3103 15.0854C15.0937 14.6222 14.8777 14.0784 14.6714 13.4954C13.9469 11.4411 13.4915 11.8943 13.7297 13.7673C13.9014 15.0729 14.243 16.3543 14.7472 17.5833" stroke="#120071" stroke-width="0.25" stroke-linecap="round" stroke-linejoin="round"/>
<path d="M13.9566 15.1257C13.2099 12.8801 12.6547 13.2834 12.9608 15.3377C13.1952 16.7106 13.6552 18.0418 14.3248 19.2846" stroke="#120071" stroke-width="0.25" stroke-linecap="round" stroke-linejoin="round"/>
<path d="M28.3267 72.4685L26.8213 77.8957" stroke="#120071" stroke-width="0.25" stroke-linecap="round" stroke-linejoin="round"/>
<path d="M30.4921 75.8918L24.6553 74.482" stroke="#120071" stroke-width="0.25" stroke-linecap="round" stroke-linejoin="round"/>
<path d="M55.1388 18.0052L49.7568 16.7062L51.7821 9.4669L54.9438 8.42969L57.164 10.7755L55.1388 18.0052Z" stroke="#120071" stroke-width="0.25" stroke-linecap="round" stroke-linejoin="round"/>
<path d="M55.041 10.4638C55.009 10.5774 54.9414 10.6795 54.847 10.7573C54.7525 10.8352 54.6353 10.8852 54.5102 10.9012C54.3852 10.9171 54.2578 10.8982 54.1443 10.8469C54.0308 10.7955 53.9362 10.7141 53.8725 10.6127C53.8087 10.5114 53.7788 10.3948 53.7863 10.2776C53.7938 10.1605 53.8386 10.048 53.9148 9.95447C53.9911 9.86094 54.0955 9.79052 54.2148 9.75213C54.334 9.71374 54.4629 9.7091 54.585 9.73878C54.747 9.78152 54.8849 9.88086 54.9699 10.016C55.0549 10.1511 55.0804 10.3116 55.041 10.4638Z" stroke="#120071" stroke-width="0.25" stroke-linecap="round" stroke-linejoin="round"/>
<path d="M54.5273 9.72552C58.0368 7.82176 53.755 4.55219 57.285 2.65002" stroke="#120071" stroke-width="0.25" stroke-linecap="round" stroke-linejoin="round"/>
<path d="M71.046 32.6655L68.3174 37.126" stroke="#120071" stroke-width="0.25" stroke-linecap="round" stroke-linejoin="round"/>
<path d="M72.0862 36.1699L67.2891 33.6222" stroke="#120071" stroke-width="0.25" stroke-linecap="round" stroke-linejoin="round"/>
<path d="M15.749 24.1913C18.5323 29.3488 24.0938 35.0977 30.626 40.0691C31.6041 43.1847 32.4033 46.3466 33.02 49.5412L39.1817 51.2028C40.2171 49.4459 41.1138 47.6215 41.8647 45.7438C43.5177 46.7868 45.3192 47.6103 47.217 48.1902C48.1518 48.5017 49.17 48.5229 50.1189 48.2507C53.9453 47.1692 57.6806 45.8264 61.2943 44.2333C61.0977 42.6209 60.4313 41.0891 59.3671 39.803C56.1285 41.1866 52.7217 42.201 49.2211 42.824C46.2979 41.8513 43.5203 40.5351 40.9561 38.9073C40.0441 38.3492 40.1376 37.1445 40.5571 36.2727C41.6436 36.7672 43.3125 36.8642 43.3923 32.8658C43.4772 28.8378 40.6512 30.7146 39.99 32.1461C39.8384 32.4752 39.6828 32.5701 39.3533 32.02C38.7702 31.0426 37.4153 32.179 38.7468 33.5808C38.801 33.7435 38.8158 33.9158 38.7901 34.0843C38.3433 36.2727 37.1548 37.5293 35.2601 36.0453C29.7579 31.7465 25.4162 27.8791 20.879 20.9117" stroke="#120071" stroke-width="0.25" stroke-linecap="round" stroke-linejoin="round"/>
<path d="M41.8604 45.7454C42.2925 44.7142 42.4745 43.607 42.3933 42.5029" stroke="#120071" stroke-width="0.5" stroke-linecap="round" stroke-linejoin="round"/>
</svg>
