<svg width="151" height="174" viewBox="0 0 151 174" fill="none" xmlns="http://www.w3.org/2000/svg">
<rect width="151" height="174" fill="#F5F5F5"/>
<g id="Home">
<g clip-path="url(#clip0_5_2321)">
<rect x="-898" y="-600" width="1410" height="2464" fill="#F2F2F2"/>
<g id="Frame 253">
<g id="Interface-Success-01">
<g id="color 2">
<path id="Vector" d="M115.92 120.385C108.977 120.023 96.9598 119.772 94.5859 119.56C93.3648 114.144 91.3979 105.569 90.6184 101.545L90.6568 101.519C95.4748 98.5095 99.7951 90.2707 92.8791 78.6607C83.6632 78.7358 75.2089 80.7364 67.42 85.3687C67.6155 87.0715 67.7756 88.5163 67.8644 89.4623C45.7299 99.1486 41.463 102.001 40.6452 106.8C39.6954 112.404 44.7437 120.406 59.5084 143.986C65.1228 145.254 73.6744 142.149 75.6515 137.209C73.3927 132.794 65.5551 117.516 63.082 113.25C69.7471 110.896 77.4921 107.977 83.8812 105.002C81.2687 107.434 76.0764 112.55 74.1937 114.712C76.9316 122.796 80.1318 132.183 83.5986 133.735C87.6475 135.546 89.5134 136.074 115.903 136.074C118.932 133.446 118.253 124.192 115.92 120.385Z" fill="#CA3466"/>
<path id="Vector_2" d="M32.5392 21.6571C31.8481 22.8874 31.1842 24.1319 30.548 25.3895C25.7655 34.9355 24.8232 41.2479 24.8401 45.9607C24.8578 48.2827 25.089 50.2091 25.2144 51.9635V51.9807C25.5521 52.1699 25.8694 52.3591 26.2633 52.5827C26.9744 51.4964 27.5611 51.7055 29.3035 52.5311C31.7036 53.6663 31.9347 53.7695 32.1106 55.4035C32.1284 55.6099 32.1462 55.7991 32.1818 55.9883C33.853 55.0767 35.7553 54.1651 37.9243 52.8199C42.0312 50.2571 46.9737 46.0603 52.6095 36.9615C53.3207 35.8091 54.0496 34.6078 54.7785 33.2979L32.5392 21.6571ZM39.7218 40.4911L38.584 45.7199L36.1165 40.9383L30.6406 41.5403L34.5707 37.7735L32.295 32.9059L37.2019 35.3501L41.2732 31.7725L40.3843 37.0529L45.1846 39.6845L39.7218 40.4911Z" fill="#CA3466"/>
</g>
<g id="color 1">
<path id="Vector_3" d="M124.458 14.5709C124.44 15.3735 124.44 16.1763 124.458 16.9789C125.649 16.6349 126.2 16.2221 126.289 15.8093C126.452 15.067 124.959 14.474 124.458 14.5709Z" fill="#6153BD"/>
<path id="Vector_4" d="M118.36 121.796C117.797 121.782 117.234 121.81 116.676 121.882C118.24 125.631 118.329 131.445 117.05 134.472C119.109 137.138 125.191 141.163 129.922 142.384C129.578 135.194 121.631 124.72 118.36 121.796Z" fill="#777777"/>
<path id="Vector_5" d="M114.004 14.9492C113.7 14.9402 112.507 15.1701 112.507 15.9631C112.507 16.394 113.058 16.8756 114.409 17.2024C114.555 16.4283 114.411 15.6302 114.004 14.9492Z" fill="#6153BD"/>
<path id="Vector_6" d="M93.7188 62.92C93.9677 66.4804 94.3588 70.7288 94.3588 73.67C95.71 69.0776 97.3634 63.522 98.3235 60.4432L93.7188 62.92Z" fill="#777777"/>
<path id="Vector_7" d="M86.661 28.5201C86.661 27.3505 85.0965 26.9549 84.2609 28.2277C84.1898 27.1269 82.3408 26.8698 81.434 28.3653C81.2385 27.1785 79.1584 27.4365 78.4294 28.7781C78.2161 27.7289 76.4382 28.3137 76.136 29.8789C75.816 31.5301 75.5315 33.0265 75.3359 34.3681C77.6334 33.7146 80.0173 33.3901 82.4119 33.4049C81.9141 35.228 82.1312 37.6877 82.9452 36.0193C83.7453 34.3509 85.7898 35.6064 84.3488 37.7908C84.1169 38.2432 84.0222 38.7499 84.0757 39.2521C84.1292 39.7544 84.3287 40.2317 84.6511 40.6289C84.8644 37.0341 87.7446 32.3728 88.6335 30.4808C89.8434 27.9181 88.0122 27.2301 86.661 28.5201Z" fill="#777777"/>
<path id="Vector_8" d="M72.5078 109.773C73.0412 111.304 73.6101 112.972 74.1921 114.709C76.29 112.301 82.3526 106.608 84.5393 104.699C80.7216 106.505 76.5417 108.242 72.5078 109.773Z" fill="#777777"/>
<path id="Vector_9" d="M79.1618 43.8969C79.1476 44.6812 79.0703 45.4633 78.9307 46.2361C80.1611 45.3972 81.1174 44.2348 81.6864 42.8866C80.8732 43.2867 80.0292 43.6244 79.1618 43.8969Z" fill="#6153BD"/>
<path id="Vector_10" d="M74.8197 138.738C75.6666 139.373 76.4413 140.094 77.1309 140.888C73.0062 150.348 64.1702 158.311 60.6855 160.427C61.0336 154.872 62.2196 149.396 64.2057 144.173C68.206 143.657 72.7059 141.696 74.8197 138.738Z" fill="#777777"/>
<path id="Vector_11" d="M65.414 68.8043C63.5828 70.9371 58.4981 76.2175 53.7334 79.2619C57.9575 77.9417 62.0854 76.3494 66.0896 74.4957C65.8573 72.5993 65.6321 70.7022 65.414 68.8043Z" fill="#777777"/>
<path id="Vector_12" d="M34.6036 57.8633C34.2125 57.6397 33.5369 57.9149 33.0391 58.6201C33.4485 59.3313 34.1103 59.8751 34.9021 60.1509C35.1903 58.8093 34.9957 58.0869 34.6036 57.8633Z" fill="#6153BD"/>
<path id="Vector_13" d="M30.2836 68.854C29.4658 69.7484 28.8426 70.0082 28.4346 69.886C27.8648 69.7158 27.7946 68.682 28.1324 67.5984C28.8613 68.0112 29.5902 68.424 30.2836 68.854Z" fill="#6153BD"/>
<path id="Vector_14" d="M16.8265 132.804C17.5353 132.813 18.2388 132.686 18.8964 132.429C19.5539 132.173 20.1523 131.793 20.6568 131.312C21.1614 130.83 21.562 130.256 21.8354 129.623C22.1088 128.991 22.2496 128.312 22.2496 127.626C22.2496 126.94 22.1088 126.261 21.8354 125.629C21.562 124.996 21.1614 124.422 20.6568 123.94C20.1523 123.459 19.5539 123.079 18.8964 122.823C18.2388 122.567 17.5353 122.439 16.8265 122.448C15.4193 122.466 14.0761 123.02 13.0876 123.989C12.0992 124.958 11.5449 126.265 11.5449 127.626C11.5449 128.988 12.0992 130.294 13.0876 131.263C14.0761 132.232 15.4193 132.786 16.8265 132.804Z" fill="#777777"/>
<path id="Vector_15" d="M25.217 65.9645C25.2526 64.3984 26.017 62.7309 27.2756 60.4605C27.0139 59.6211 26.9475 58.7361 27.0813 57.869C27.2151 57.0018 27.5457 56.1741 28.0494 55.4453C27.7305 55.9224 27.359 56.3647 26.9415 56.7643C27.4749 57.8135 26.6037 59.4131 25.057 58.6563L25.2703 58.9822C27.1549 60.0142 25.9104 62.3543 23.9014 61.4264L24.2757 61.7541C26.1247 62.7001 24.969 64.9877 22.9778 64.144C22.1067 63.7665 21.3955 63.4913 20.8088 63.2505C19.2798 64.4364 17.3775 64.7125 14.2129 64.2825L27.9381 71.4721C25.9815 69.3176 25.1637 67.7017 25.217 65.9645Z" fill="#777777"/>
<path id="Vector_16" d="M13.7535 64.0471L10.4111 68.2792L26.572 76.7588L28.421 71.7355L13.7535 64.0471Z" fill="#777777"/>
</g>
<g id="outlines">
<path id="Vector_17" d="M30.281 68.854C28.5967 67.7876 26.6541 66.8416 25.1963 65.93" stroke="#120071" stroke-width="0.75" stroke-linecap="round" stroke-linejoin="round"/>
<path id="Vector_18" d="M75.262 34.9184L71.9196 1L46.0693 63.7112" stroke="#120071" stroke-width="0.75" stroke-linecap="round" stroke-linejoin="round"/>
<path id="Vector_19" d="M76.8449 51.1208L76.1338 43.742" stroke="#120071" stroke-width="0.75" stroke-linecap="round" stroke-linejoin="round"/>
<path id="Vector_20" d="M114.233 120.299L138.536 61.3376L95.8496 68.6304" stroke="#120071" stroke-width="0.75" stroke-linecap="round" stroke-linejoin="round"/>
<path id="Vector_21" d="M88.8105 135.298L92.5263 173L107.763 136.037" stroke="#120071" stroke-width="0.75" stroke-linecap="round" stroke-linejoin="round"/>
<path id="Vector_22" d="M40.6657 76.8176L25.8916 112.662L40.6835 110.134" stroke="#120071" stroke-width="0.75" stroke-linecap="round" stroke-linejoin="round"/>
<path id="Vector_23" d="M30.5678 25.424L21.3229 20.5908C13.9307 33.8004 20.6828 43.8108 24.8608 45.9952" stroke="#120071" stroke-width="0.75" stroke-linecap="round" stroke-linejoin="round"/>
<path id="Vector_24" d="M36.1331 40.9557L30.6572 41.5405L34.5686 37.7909L32.2929 32.9233L37.1998 35.3657L41.2711 31.7709L40.3822 37.0341L45.1825 39.6829L39.7244 40.4913L38.6221 45.7201L36.1331 40.9557Z" stroke="#120071" stroke-width="0.75" stroke-linecap="round" stroke-linejoin="round"/>
<path id="Vector_25" d="M52.6736 36.9842L61.8567 41.8156C54.457 55.0252 42.1055 55.0252 37.9443 52.8408" stroke="#120071" stroke-width="0.75" stroke-linecap="round" stroke-linejoin="round"/>
<path id="Vector_26" d="M24.1721 147.323C29.9642 147.323 34.6606 142.78 34.6606 137.176C34.6606 131.572 29.9642 127.029 24.1721 127.029C18.38 127.029 13.6836 131.572 13.6836 137.176C13.6836 142.78 18.3791 147.323 24.1721 147.323Z" stroke="#120071" stroke-width="0.75" stroke-linecap="round" stroke-linejoin="round"/>
<path id="Vector_27" d="M138.574 36.4148C139.432 36.4148 140.255 36.085 140.862 35.4979C141.468 34.9108 141.809 34.1146 141.809 33.2844C141.809 32.4541 141.468 31.6579 140.862 31.0708C140.255 30.4838 139.432 30.154 138.574 30.154C137.715 30.154 136.892 30.4838 136.286 31.0708C135.679 31.6579 135.338 32.4541 135.338 33.2844C135.338 34.1146 135.679 34.9108 136.286 35.4979C136.892 36.085 137.715 36.4148 138.574 36.4148Z" stroke="#120071" stroke-width="0.75" stroke-linecap="round" stroke-linejoin="round"/>
<path id="Vector_28" d="M12.9132 88.548C13.3517 88.548 13.7723 88.3795 14.0823 88.0795C14.3924 87.7795 14.5666 87.3727 14.5666 86.9484C14.5666 86.5242 14.3924 86.1173 14.0823 85.8173C13.7723 85.5173 13.3517 85.3488 12.9132 85.3488C12.4747 85.3488 12.0541 85.5173 11.744 85.8173C11.434 86.1173 11.2598 86.5242 11.2598 86.9484C11.2598 87.3727 11.434 87.7795 11.744 88.0795C12.0541 88.3795 12.4747 88.548 12.9132 88.548Z" stroke="#120071" stroke-width="0.75" stroke-linecap="round" stroke-linejoin="round"/>
<path id="Vector_29" d="M97.4679 9.97839L95.8145 16.3768L100.828 15.5168L99.1746 21.9152" stroke="#120071" stroke-width="0.75" stroke-linecap="round" stroke-linejoin="round"/>
<path id="Vector_30" d="M23.8827 61.4064C25.8945 62.3298 27.1343 59.9987 25.2516 58.9622C23.848 58.19 22.8337 57.7057 21.6959 57.139C21.3569 56.9497 20.9554 56.8941 20.5751 56.9839C20.1948 57.0736 19.865 57.3018 19.6542 57.621C19.4435 57.9401 19.3681 58.3256 19.4437 58.6972C19.5193 59.0688 19.7402 59.3978 20.0602 59.6158C20.966 60.1689 22.0365 60.5591 23.8827 61.4064Z" stroke="#120071" stroke-width="0.75" stroke-linecap="round" stroke-linejoin="round"/>
<path id="Vector_31" d="M26.2833 52.6C25.5721 52.1872 25.0584 51.9084 24.3632 51.5137C24.2009 51.4041 24.0179 51.3266 23.8247 51.2855C23.6314 51.2443 23.4317 51.2404 23.2369 51.274C23.0421 51.3075 22.856 51.3778 22.6893 51.4809C22.5226 51.584 22.3785 51.7179 22.2653 51.8749C22.152 52.0319 22.0719 52.2089 22.0293 52.3959C21.9868 52.5828 21.9828 52.776 22.0174 52.9645C22.0521 53.153 22.1248 53.333 22.2314 53.4943C22.338 53.6555 22.4763 53.7949 22.6386 53.9045C23.399 54.3954 24.1952 54.8323 25.021 55.2117" stroke="#120071" stroke-width="0.75" stroke-linecap="round" stroke-linejoin="round"/>
<path id="Vector_32" d="M22.9929 64.1412C24.9664 64.984 26.121 62.6991 24.273 61.7504C22.9031 61.047 21.8878 60.6034 20.7883 60.0992C20.4566 59.9189 20.0655 59.8701 19.6973 59.9632C19.3291 60.0562 19.0126 60.2839 18.8145 60.5982C18.6163 60.9125 18.552 61.2889 18.635 61.6482C18.7179 62.0075 18.9418 62.3216 19.2594 62.5244C20.1483 63.0223 21.1795 63.3672 22.9929 64.1412Z" stroke="#120071" stroke-width="0.75" stroke-linecap="round" stroke-linejoin="round"/>
<path id="Vector_33" d="M24.9819 55.2832C24.253 54.9048 23.6092 54.6196 22.9018 54.2512C22.5623 54.0473 22.1542 53.9792 21.7637 54.0611C21.3732 54.1431 21.031 54.3687 20.8093 54.6904C20.5877 55.012 20.504 55.4045 20.576 55.7847C20.648 56.1649 20.87 56.5032 21.1951 56.728C22.1186 57.3146 23.1722 57.7355 25.0315 58.6372C26.5811 59.3876 27.4494 57.7944 26.9161 56.7452" stroke="#120071" stroke-width="0.75" stroke-linecap="round" stroke-linejoin="round"/>
<path id="Vector_34" d="M33.0216 58.62C33.5372 57.9148 34.2091 57.6459 34.6039 57.8632C35.3085 58.2524 35.3675 60.2368 33.1816 64.4164C30.8517 68.8712 29.216 70.1304 28.4169 69.886C27.8649 69.7167 27.7769 68.6648 28.1147 67.5984" stroke="#120071" stroke-width="0.75" stroke-linecap="round" stroke-linejoin="round"/>
<path id="Vector_35" d="M34.8996 60.1508C33.6906 59.6692 32.4667 58.811 32.1261 55.4036C31.9605 53.7741 31.7181 53.6655 29.3189 52.5312C26.5118 51.205 26.6699 51.4449 24.5542 56.2636C24.034 57.4486 25.941 58.6716 28.1455 55.2316C26.421 57.8632 26.742 60.4821 28.3233 62.146" stroke="#120071" stroke-width="0.75" stroke-linecap="round" stroke-linejoin="round"/>
<path id="Vector_36" d="M120.987 8.00042C120.811 10.1504 118.116 10.2192 118.125 8.13802C118.132 6.59002 118.2 5.48922 118.267 4.25082C118.38 2.18682 121.225 2.20402 121.29 3.90682C121.331 4.93882 121.151 6.02242 120.987 8.00042Z" stroke="#120071" stroke-width="0.75" stroke-linecap="round" stroke-linejoin="round"/>
<path id="Vector_37" d="M111.942 6.41986C111.924 5.66306 111.936 5.11085 111.924 4.38845C111.891 2.42765 114.779 2.33893 114.911 3.97565C114.972 4.8112 114.972 5.65038 114.911 6.48685" stroke="#120071" stroke-width="0.75" stroke-linecap="round" stroke-linejoin="round"/>
<path id="Vector_38" d="M124.047 8.4992C123.824 10.5985 121.21 10.5976 121.291 8.568C121.351 7.0716 121.448 6.0052 121.54 4.8184C121.694 2.82683 124.455 2.90921 124.455 4.54683C124.455 5.5408 124.25 6.59091 124.047 8.4992Z" stroke="#120071" stroke-width="0.75" stroke-linecap="round" stroke-linejoin="round"/>
<path id="Vector_39" d="M114.98 6.46959C114.998 5.66119 115.068 4.97319 115.087 4.19919C115.138 2.10079 118.034 2.06639 118.145 3.78639C118.213 4.83649 118.056 5.93639 117.95 7.9506C117.956 8.251 117.862 8.54546 117.683 8.79047C117.503 9.03547 117.246 9.21804 116.951 9.31121C116.656 9.40402 116.337 9.40218 116.043 9.30595C115.749 9.20973 115.495 9.02426 115.318 8.7771" stroke="#120071" stroke-width="0.75" stroke-linecap="round" stroke-linejoin="round"/>
<path id="Vector_40" d="M113.983 14.9492C113.094 15.0868 112.525 15.4996 112.525 15.9296C112.525 16.7036 114.25 17.6297 119.068 17.5464C124.188 17.4559 126.128 16.5832 126.304 15.792C126.43 15.2244 125.682 14.7057 124.562 14.5364" stroke="#120071" stroke-width="0.75" stroke-linecap="round" stroke-linejoin="round"/>
<path id="Vector_41" d="M114.428 17.1852C114.588 15.9296 114.422 14.511 111.566 12.7304C110.194 11.8749 110.214 11.6124 110.392 9.04956C110.604 6.02236 110.731 6.27765 116.082 6.53836C117.397 6.60264 117.539 8.79156 113.379 9.20436C116.579 8.86036 118.766 10.2708 119.461 12.352" stroke="#120071" stroke-width="0.75" stroke-linecap="round" stroke-linejoin="round"/>
<path id="Vector_42" d="M124.475 16.9616C124.368 13.4184 124.756 7.70799 124.475 4.95599" stroke="#120071" stroke-width="0.75" stroke-linecap="round" stroke-linejoin="round"/>
<path id="Vector_43" d="M112.527 15.9468C112.562 20.2468 112.527 31.2548 112.224 36.3976C110.821 37.292 99.7447 42.6439 94.9968 44.774C90.699 46.7031 87.0656 46.3039 85.3729 43.6822C83.0336 40.0612 87.0282 33.9715 88.6479 30.4808C89.8391 27.918 88.0257 27.23 86.6745 28.52C86.6745 27.3676 85.11 26.9548 84.2744 28.2276C84.1855 27.1268 82.3365 26.8697 81.4475 28.3652C81.2342 27.1956 79.1719 27.4536 78.4429 28.778C78.2296 27.746 76.4639 28.3253 76.1495 29.8788C73.3264 43.7845 75.0266 46.083 81.7142 42.882C81.1452 44.2302 80.189 45.3926 78.9585 46.2315" stroke="#120071" stroke-width="0.75" stroke-linecap="round" stroke-linejoin="round"/>
<path id="Vector_44" d="M126.305 15.8092C126.305 40.044 126.578 41.2335 125.256 43.6216C123.504 46.79 120.047 48.7644 93.7168 62.92C93.9835 66.4804 94.3568 70.7288 94.3568 73.67" stroke="#120071" stroke-width="0.75" stroke-linecap="round" stroke-linejoin="round"/>
<path id="Vector_45" d="M34.6025 57.8632C40.4695 61.2688 48.4344 64.7776 49.43 65.2248C53.8747 63.4704 68.5759 57.0521 74.601 53.2192C78.1202 50.9814 79.1346 46.3564 79.1523 43.8796" stroke="#120071" stroke-width="0.75" stroke-linecap="round" stroke-linejoin="round"/>
<path id="Vector_46" d="M74.6045 53.2337C76.9335 55.6073 85.9473 53.9579 88.2763 45.7861" stroke="#120071" stroke-width="0.75" stroke-linecap="round" stroke-linejoin="round"/>
<path id="Vector_47" d="M75.334 34.368C77.6321 33.7179 80.0156 33.3935 82.4099 33.4048C81.9121 35.2452 82.1292 37.722 82.9433 36.0192C83.7574 34.3164 85.7963 35.6291 84.3469 37.7908C84.1111 38.2422 84.0143 38.7496 84.0679 39.2527C84.1215 39.7558 84.3232 40.2334 84.6491 40.6288" stroke="#120071" stroke-width="0.75" stroke-linecap="round" stroke-linejoin="round"/>
<path id="Vector_48" d="M60.3643 114.193C68.4003 111.407 81.5603 106.699 90.2859 101.758C95.2303 98.9576 99.9931 90.5776 92.8994 78.658C94.2328 74.1317 96.9707 64.7948 98.3266 60.4441" stroke="#120071" stroke-width="0.75" stroke-linecap="round" stroke-linejoin="round"/>
<path id="Vector_49" d="M76.5965 85.6584C46.7993 98.4896 41.5789 101.414 40.6479 106.797C39.8534 111.39 41.8746 115.999 59.5111 144.003C64.4181 145.293 73.6274 142.421 75.6542 137.214C70.3562 126.803 64.8447 116.302 63.0847 113.254" stroke="#120071" stroke-width="0.75" stroke-linecap="round" stroke-linejoin="round"/>
<path id="Vector_50" d="M72.5254 109.773C75.5833 118.407 79.4058 131.84 83.6193 133.732C87.8329 135.624 89.4685 136.003 115.902 136.072C118.551 134.111 118.64 124.599 115.902 120.368C108.884 119.99 97.1097 119.766 94.6028 119.542C93.3761 114.038 91.4214 105.42 90.6728 101.5" stroke="#120071" stroke-width="0.75" stroke-linecap="round" stroke-linejoin="round"/>
<path id="Vector_51" d="M74.8176 138.738C76.0762 139.747 77.2204 140.883 78.2311 142.126C76.0977 147.888 67.6575 158.793 60.7191 162.938C60.3102 158.483 62.0169 149.47 64.1859 144.173" stroke="#120071" stroke-width="0.75" stroke-linecap="round" stroke-linejoin="round"/>
<path id="Vector_52" d="M110.394 120.144C112.74 122.69 113.896 131.376 110.038 136.054" stroke="#120071" stroke-width="0.75" stroke-linecap="round" stroke-linejoin="round"/>
<path id="Vector_53" d="M56.3105 138.91C61.7153 140.062 70.2528 137.964 72.987 131.995" stroke="#120071" stroke-width="0.75" stroke-linecap="round" stroke-linejoin="round"/>
<path id="Vector_54" d="M60.6494 160.427C64.0985 158.328 72.9879 150.348 77.1125 140.873" stroke="#120071" stroke-width="0.75" stroke-linecap="round" stroke-linejoin="round"/>
<path id="Vector_55" d="M116.67 121.864C117.739 121.744 118.819 121.744 119.888 121.864C122.892 124.218 131.284 133.956 131.391 142.676C126.555 142.043 119.355 137.43 117.043 134.455" stroke="#120071" stroke-width="0.75" stroke-linecap="round" stroke-linejoin="round"/>
<path id="Vector_56" d="M118.359 121.796C121.634 124.72 129.56 135.194 129.916 142.384" stroke="#120071" stroke-width="0.75" stroke-linecap="round" stroke-linejoin="round"/>
<path id="Vector_57" d="M65.04 65.2248C65.5023 70.574 67.4729 85.0736 67.8472 89.4424" stroke="#120071" stroke-width="0.75" stroke-linecap="round" stroke-linejoin="round"/>
<path id="Vector_58" d="M92.8988 78.658C82.836 78.7268 74.5512 81.1348 67.4219 85.366" stroke="#120071" stroke-width="0.75" stroke-linecap="round" stroke-linejoin="round"/>
<path id="Vector_59" d="M67.0484 137.551C63.1726 130.275 55.1366 113.677 53.4121 110.203C61.4481 106.281 81.8759 98.0596 85.3961 95.944C88.9163 93.8284 90.303 91.1108 86.5695 79.0364" stroke="#120071" stroke-width="0.75" stroke-linecap="round" stroke-linejoin="round"/>
<path id="Vector_60" d="M28.4336 69.8905C45.2701 79.7416 47.9734 80.8098 52.186 79.69C56.9555 78.3184 61.6045 76.5814 66.089 74.4956" stroke="#120071" stroke-width="0.75" stroke-linecap="round" stroke-linejoin="round"/>
<path id="Vector_61" d="M53.7324 79.26C58.4812 76.2156 63.5818 70.918 65.4131 68.8042" stroke="#120071" stroke-width="0.75" stroke-linecap="round" stroke-linejoin="round"/>
<path id="Vector_62" d="M74.2148 114.709C76.3127 112.301 82.3753 106.625 84.5621 104.699" stroke="#120071" stroke-width="0.75" stroke-linecap="round" stroke-linejoin="round"/>
<path id="Vector_63" d="M6.58301 39.1496L7.19965 42.5217" stroke="#120071" stroke-width="0.75" stroke-linecap="round" stroke-linejoin="round"/>
<path id="Vector_64" d="M14.5647 44.5513L11.0791 45.1478" stroke="#120071" stroke-width="0.75" stroke-linecap="round" stroke-linejoin="round"/>
<path id="Vector_65" d="M8.9809 52.2741L8.36426 48.9011" stroke="#120071" stroke-width="0.75" stroke-linecap="round" stroke-linejoin="round"/>
<path id="Vector_66" d="M1 46.8715L4.48744 46.274" stroke="#120071" stroke-width="0.75" stroke-linecap="round" stroke-linejoin="round"/>
<path id="Vector_67" d="M11.0796 45.1479C10.6468 45.2222 10.2031 45.2133 9.77393 45.1214C9.34474 45.0296 8.93849 44.8568 8.57846 44.6128C8.21843 44.3689 7.91168 44.0586 7.6758 43.6998C7.43992 43.341 7.27953 42.9406 7.20383 42.5217C7.28098 42.9406 7.27195 43.3701 7.17725 43.7856C7.08256 44.2011 6.90406 44.5944 6.65199 44.9431C6.39992 45.2917 6.07922 45.5888 5.70827 45.8174C5.33732 46.0459 4.9234 46.2014 4.49023 46.2749C4.92308 46.2005 5.36686 46.2093 5.79617 46.301C6.22547 46.3927 6.63186 46.5654 6.99206 46.8093C7.35226 47.0531 7.65919 47.3633 7.89528 47.7221C8.13136 48.0809 8.29196 48.4813 8.36787 48.9002C8.29097 48.4815 8.30012 48.0523 8.39482 47.6371C8.48951 47.2218 8.66788 46.8287 8.91973 46.4802C9.17159 46.1317 9.49198 45.8347 9.86259 45.6061C10.2332 45.3775 10.6467 45.2218 11.0796 45.1479Z" stroke="#120071" stroke-width="0.75" stroke-linecap="round" stroke-linejoin="round"/>
<path id="Vector_68" d="M138.556 90.1992L139.439 95.0351" stroke="#120071" stroke-width="0.75" stroke-linecap="round" stroke-linejoin="round"/>
<path id="Vector_69" d="M150.001 97.9455L145.002 98.8001" stroke="#120071" stroke-width="0.75" stroke-linecap="round" stroke-linejoin="round"/>
<path id="Vector_70" d="M141.994 109.018L141.109 104.182" stroke="#120071" stroke-width="0.75" stroke-linecap="round" stroke-linejoin="round"/>
<path id="Vector_71" d="M130.549 101.271L135.55 100.417" stroke="#120071" stroke-width="0.75" stroke-linecap="round" stroke-linejoin="round"/>
<path id="Vector_72" d="M145.001 98.8001C144.38 98.9067 143.743 98.8939 143.128 98.7625C142.512 98.6311 141.929 98.3836 141.412 98.0342C140.895 97.6848 140.454 97.24 140.115 96.7253C139.777 96.2106 139.546 95.6362 139.438 95.0351C139.548 95.6356 139.535 96.2513 139.4 96.8469C139.264 97.4426 139.009 98.0066 138.648 98.5068C138.286 99.0065 137.827 99.4324 137.295 99.7601C136.763 100.088 136.17 100.311 135.549 100.417C136.484 100.256 137.447 100.368 138.316 100.737C139.185 101.107 139.921 101.717 140.431 102.492C140.77 103.007 141 103.581 141.109 104.182C140.999 103.581 141.012 102.966 141.148 102.37C141.284 101.774 141.539 101.21 141.901 100.71C142.262 100.21 142.721 99.7836 143.253 99.4558C143.785 99.128 144.379 98.9051 145.001 98.8001Z" stroke="#120071" stroke-width="0.75" stroke-linecap="round" stroke-linejoin="round"/>
<path id="Vector_73" d="M32.5392 21.6572C31.8481 22.8875 31.1842 24.1319 30.548 25.3896C25.7655 34.9356 24.8232 41.248 24.8401 45.9608C24.8578 48.2828 25.089 50.2092 25.2144 51.9636V51.9808C25.5521 52.17 25.8694 52.3592 26.2633 52.5828C26.9744 51.4965 27.5611 51.7056 29.3035 52.5312C31.7036 53.6664 31.9347 53.7696 32.1106 55.4036C32.1284 55.61 32.1462 55.7992 32.1818 55.9884C33.853 55.0768 35.7553 54.1652 37.9243 52.82C42.0312 50.2572 46.9737 46.0604 52.6095 36.9616C53.3207 35.8092 54.0496 34.6079 54.7785 33.298L32.5392 21.6572ZM39.7218 40.4912L38.584 45.72L36.1165 40.9384L30.6406 41.5404L34.5707 37.7736L32.295 32.906L37.2019 35.3502L41.2732 31.7726L40.3843 37.053L45.1846 39.6846L39.7218 40.4912Z" stroke="#120071" stroke-width="0.75" stroke-linejoin="round"/>
<path id="Vector_74" d="M25.216 65.9644C25.2516 64.3983 26.0161 62.7308 27.2746 60.4604C27.0129 59.621 26.9465 58.736 27.0803 57.8689C27.2141 57.0018 27.5448 56.1741 28.0485 55.4453C27.7295 55.9223 27.358 56.3646 26.9406 56.7642C27.4739 57.8134 26.6028 59.413 25.056 58.6562L25.2694 58.9821C27.1539 60.0141 25.9094 62.3542 23.9004 61.4263L24.2747 61.754C26.1237 62.7 24.9681 64.9876 22.9768 64.1439C22.1057 63.7664 21.3945 63.4912 20.8078 63.2504C19.2789 64.4363 17.3765 64.7124 14.2119 64.2824L27.9371 71.472C25.9805 69.3175 25.1627 67.7016 25.216 65.9644Z" stroke="#120071" stroke-width="0.75" stroke-linejoin="round"/>
<path id="Vector_75" d="M13.7653 64.047L10.4229 68.2791L26.5837 76.7587L28.4327 71.7354L13.7653 64.047Z" stroke="#120071" stroke-width="0.75" stroke-linejoin="round"/>
</g>
</g>
</g>
</g>
<rect x="-897.5" y="-599.5" width="1409" height="2463" stroke="black" stroke-opacity="0.2"/>
</g>
<defs>
<clipPath id="clip0_5_2321">
<rect x="-898" y="-600" width="1410" height="2464" fill="white"/>
</clipPath>
</defs>
</svg>
