<svg width="70" height="70" viewBox="0 0 70 70" fill="none" xmlns="http://www.w3.org/2000/svg">
<path fill-rule="evenodd" clip-rule="evenodd" d="M34.985 0.005006C31.5901 -0.0424766 28.2195 0.585985 25.0693 1.85387C21.919 3.12177 19.0518 5.0038 16.6343 7.39064C14.2167 9.77747 12.2971 12.6215 10.9868 15.7575C9.67656 18.8935 9.00182 22.2589 9.00182 25.6583C9.00182 29.0576 9.67656 32.423 10.9868 35.559C12.2971 38.695 14.2167 41.539 16.6343 43.9259C19.0518 46.3127 21.919 48.1948 25.0693 49.4626C28.2195 50.7305 31.5901 51.359 34.985 51.3115C41.7812 51.3115 48.2991 48.6085 53.1048 43.7971C57.9104 38.9857 60.6102 32.4601 60.6102 25.6558C60.6102 18.8514 57.9104 12.3258 53.1048 7.5144C48.2991 2.70301 41.7812 0 34.985 0V0.005006ZM36 12.1345L39.415 19.0128C39.491 19.1863 39.6115 19.3366 39.7643 19.4483C39.9172 19.56 40.0968 19.6291 40.285 19.6486L47.8651 20.7999C48.0822 20.8277 48.2868 20.9169 48.455 21.0571C48.6232 21.1972 48.7479 21.3825 48.8146 21.5912C48.8813 21.7999 48.8871 22.0233 48.8314 22.2351C48.7757 22.447 48.6608 22.6386 48.5001 22.7873L42.9101 28.1137C42.8268 28.2728 42.7834 28.4497 42.7834 28.6293C42.7834 28.8089 42.8268 28.9858 42.9101 29.1449L43.9801 36.694C44.0251 36.9114 44.0064 37.1371 43.9262 37.3441C43.846 37.5511 43.7078 37.7304 43.5281 37.8606C43.3485 37.9907 43.1351 38.0661 42.9137 38.0776C42.6922 38.0891 42.4722 38.0363 42.2801 37.9255L35.53 34.3512C35.3549 34.2717 35.1648 34.2305 34.9725 34.2305C34.7802 34.2305 34.5901 34.2717 34.415 34.3512L27.6649 37.9255C27.4728 38.0363 27.2528 38.0891 27.0313 38.0776C26.8099 38.0661 26.5965 37.9907 26.4169 37.8606C26.2372 37.7304 26.099 37.5511 26.0188 37.3441C25.9386 37.1371 25.9199 36.9114 25.9649 36.694L27.2299 29.1449C27.2841 28.9699 27.2942 28.7841 27.2593 28.6042C27.2244 28.4242 27.1456 28.2558 27.0299 28.1137L21.4349 22.7473C21.2846 22.597 21.1788 22.4081 21.1292 22.2014C21.0796 21.9946 21.0882 21.7782 21.1539 21.576C21.2197 21.3738 21.3401 21.1938 21.5018 21.056C21.6634 20.9181 21.8601 20.8278 22.0699 20.7949L29.655 19.6886C29.8432 19.6691 30.0228 19.6 30.1757 19.4883C30.3285 19.3766 30.449 19.2264 30.525 19.0528L33.94 12.1746C34.0309 11.9794 34.1747 11.8136 34.355 11.6961C34.5353 11.5786 34.7449 11.5141 34.96 11.5099C35.1751 11.5058 35.3871 11.5621 35.5718 11.6725C35.7565 11.7829 35.9066 11.943 36.005 12.1345H36ZM61.5002 43.362C57.1909 49.8273 50.6761 54.499 43.1751 56.5027L50.2351 68.7474C50.4821 69.1762 50.8505 69.5221 51.2938 69.7412C51.7371 69.9604 52.2354 70.0431 52.7256 69.9788C53.2158 69.9145 53.676 69.7061 54.0479 69.38C54.4198 69.0539 54.6868 68.6247 54.8152 68.1467L57.3652 58.6403L66.8553 61.1884C67.3328 61.3159 67.8373 61.299 68.3052 61.1396C68.7731 60.9803 69.1833 60.6856 69.484 60.293C69.7847 59.9003 69.9624 59.4272 69.9947 58.9335C70.0269 58.4398 69.9123 57.9475 69.6653 57.519L61.5052 43.362H61.5002ZM26.8199 56.5077C19.3181 54.5116 12.7998 49.8471 8.48476 43.387L0.334682 57.519C0.0876682 57.9475 -0.0269389 58.4398 0.00533922 58.9335C0.0376174 59.4272 0.215333 59.9003 0.516034 60.293C0.816735 60.6856 1.22693 60.9803 1.6948 61.1396C2.16267 61.299 2.66722 61.3159 3.14471 61.1884L12.6398 58.6403L15.1848 68.1467C15.3131 68.6247 15.5802 69.0539 15.9521 69.38C16.324 69.7061 16.7842 69.9145 17.2744 69.9788C17.7646 70.0431 18.2629 69.9604 18.7062 69.7412C19.1494 69.5221 19.5179 69.1762 19.7649 68.7474L26.8199 56.5077Z" fill="#CA3466"/>
</svg>
