<svg width="35" height="50" viewBox="0 0 35 50" fill="none" xmlns="http://www.w3.org/2000/svg">
<path d="M19.529 4.76719L19.3306 3.28931C19.2516 2.70137 19.3643 2.08155 19.644 1.5662C19.9236 1.05085 20.3473 0.682183 20.8217 0.541306C21.2962 0.400428 21.7826 0.498878 22.1739 0.814997C22.5652 1.13112 22.8294 1.63901 22.9083 2.22695L23.1068 3.70483C23.1858 4.29277 23.073 4.91259 22.7934 5.42794C22.5137 5.94329 22.0901 6.31196 21.6156 6.45283C21.1412 6.59371 20.6548 6.49526 20.2635 6.17914C19.8722 5.86302 19.608 5.35513 19.529 4.76719ZM26.296 6.87077C26.7299 7.09237 27.2284 7.08153 27.6818 6.84062C28.1353 6.59971 28.5065 6.14847 28.7139 5.58613L29.2356 4.17294C29.4431 3.61049 29.4698 2.98292 29.3097 2.42828C29.1496 1.87364 28.8158 1.43737 28.3819 1.21545C27.9479 0.993521 27.4493 1.00411 26.9957 1.2449C26.5421 1.48568 26.1707 1.93693 25.9632 2.49938L25.4414 3.91258C25.3386 4.19118 25.2791 4.48873 25.2664 4.78822C25.2537 5.08771 25.288 5.38326 25.3673 5.65799C25.4467 5.93272 25.5696 6.18123 25.7289 6.38933C25.8883 6.59743 26.081 6.76102 26.296 6.87077ZM34.0119 7.24414C33.8949 6.99428 33.7382 6.77938 33.5507 6.61171C33.3632 6.44403 33.1486 6.32687 32.9191 6.26692C32.6896 6.20697 32.4498 6.2054 32.2134 6.2623C31.9769 6.3192 31.7484 6.43345 31.541 6.59854L30.4879 7.43758C30.0689 7.77113 29.7611 8.29142 29.6321 8.88399C29.5031 9.47656 29.5635 10.0929 29.8 10.5973C30.0365 11.1018 30.4298 11.4531 30.8933 11.574C31.3568 11.6948 31.8525 11.5753 32.2715 11.2418L33.3231 10.4032C33.5306 10.2382 33.713 10.0256 33.8599 9.77751C34.0068 9.52944 34.1154 9.25077 34.1793 8.95741C34.2433 8.66405 34.2614 8.36175 34.2327 8.06778C34.204 7.77382 34.1289 7.49394 34.0119 7.24414ZM30.356 15.2857C32.1205 17.8019 33.1376 21.0359 33.2514 24.4919C33.3546 27.6219 32.7117 30.7778 31.4134 33.5624C31.147 34.1337 30.9618 34.7349 30.873 35.3418C30.4665 38.1207 29.4911 40.7735 28.0392 43.0301C26.4276 45.5349 24.2994 47.4419 21.9175 48.5155C19.5355 49.5891 17.0041 49.7823 14.6357 49.0713C12.2672 48.3604 10.1655 46.7763 8.58999 44.5147L1.86842 34.8653C1.44115 34.2518 1.13478 33.5166 0.971495 32.713C0.808212 31.9094 0.792111 31.0575 0.924359 30.219C1.05661 29.3805 1.33389 28.5765 1.73612 27.8652C2.05042 27.3094 2.43486 26.821 2.87156 26.421C3.06873 26.2403 3.13529 25.9419 3.00031 25.7483V25.7483C2.57044 25.1311 2.26294 24.3908 2.10038 23.5816C1.93781 22.7725 1.9243 21.915 2.06082 21.072C2.19735 20.2291 2.48045 19.422 2.88938 18.7101V18.7101C3.57309 17.5197 4.09677 16.1006 4.12584 14.7917C4.13432 14.4097 4.17342 14.0252 4.24345 13.644C4.45024 12.5182 4.91724 11.4728 5.58406 10.6427C6.25088 9.81273 7.08686 9.23635 7.98391 8.9881C8.15156 8.94171 8.3199 8.90718 8.48816 8.88442C9.71743 8.71821 11.1046 8.15236 12.1488 7.31084V7.31084C12.7654 6.81394 13.4563 6.49837 14.1658 6.38958C14.8753 6.28079 15.5835 6.38183 16.2333 6.68455C16.8831 6.98727 17.4564 7.4832 17.9068 8.13233L19.1536 9.92252C19.4135 10.2956 19.9884 10.2164 20.3345 9.83003V9.83003C20.7945 9.31461 21.3246 8.91135 21.8946 8.6433C22.4645 8.37524 23.0631 8.24766 23.6561 8.26783C24.2491 8.288 24.8248 8.45554 25.3505 8.76087C25.8761 9.0662 26.3413 9.50332 26.7195 10.0473L30.356 15.2857ZM22.5107 14.751C22.509 14.7515 22.5081 14.7537 22.5091 14.755L23.4994 16.1772C23.5558 16.2583 23.6241 16.3285 23.6991 16.39C24.0154 16.6489 24.301 16.9606 24.549 17.3174L28.1979 22.556V22.556C28.5517 23.0634 29.3635 22.6839 29.1999 22.0575C28.8507 20.7208 28.2958 19.4884 27.5572 18.4316L23.9145 13.1815C23.8396 13.0698 23.7467 12.9795 23.6412 12.916C23.5356 12.8524 23.4196 12.8169 23.2998 12.8116C23.18 12.8062 23.0589 12.831 22.9435 12.8845C22.8281 12.9381 22.7208 13.0194 22.6277 13.1236C22.5347 13.2278 22.4579 13.3528 22.4017 13.4914C22.3456 13.63 22.3112 13.7794 22.3007 13.9308C22.2901 14.0822 22.3036 14.2326 22.3403 14.3732C22.3767 14.5126 22.4351 14.6396 22.5123 14.7469C22.5133 14.7483 22.5124 14.7505 22.5107 14.751V14.751ZM13.696 12.8386L14.4799 13.9677C14.6765 14.251 14.9196 14.4907 15.1637 14.7272C15.3722 14.9292 15.5645 15.1563 15.7383 15.4057L16.9871 17.1959C17.2469 17.5683 17.8206 17.4895 18.166 17.1034V17.1034V17.1034C18.4693 16.7637 18.5718 16.2629 18.3438 15.9354L15.0961 11.2702C15.0212 11.1585 14.9283 11.0682 14.8228 11.0047C14.7172 10.9411 14.6012 10.9056 14.4814 10.9003C14.3616 10.8949 14.2405 10.9197 14.1251 10.9732C14.0097 11.0268 13.9023 11.1081 13.8093 11.2123C13.7163 11.3165 13.6395 11.4415 13.5833 11.5801C13.5272 11.7187 13.4928 11.8681 13.4823 12.0195C13.4717 12.1709 13.4852 12.3213 13.5219 12.4619C13.5586 12.6026 13.6178 12.7306 13.696 12.8386ZM7.96197 15.3384C7.96024 15.3389 7.95936 15.3411 7.96032 15.3425L8.28498 15.8088C8.43276 16.021 8.76151 15.9699 8.93194 15.7275C9.06512 15.5381 9.20751 15.3589 9.35825 15.1908V15.1908C9.66138 14.8515 9.76336 14.3515 9.53575 14.024L9.35976 13.7707C9.20857 13.553 8.99091 13.4251 8.75387 13.4147C8.57549 13.4088 8.396 13.4698 8.23807 13.5899C8.08013 13.71 7.95084 13.8839 7.8665 14.0896C7.78217 14.2954 7.74658 14.5237 7.76423 14.7457C7.78178 14.9664 7.85114 15.1711 7.96362 15.3343C7.96458 15.3357 7.96369 15.3379 7.96197 15.3384V15.3384ZM27.4211 33.8382C27.421 33.8384 27.4207 33.8384 27.4208 33.8382C27.5387 32.3418 27.4206 30.8516 27.0733 29.4538C26.7259 28.0554 26.1559 26.7771 25.3963 25.693L21.7474 20.4544C21.6335 20.2903 21.4809 20.176 21.309 20.1259C21.1371 20.0758 20.9536 20.0922 20.7818 20.173C20.6099 20.2539 20.4576 20.3956 20.3439 20.58C20.2303 20.7645 20.1606 20.9835 20.1436 21.2092C20.1245 21.4649 20.1734 21.7153 20.2826 21.921L22.4564 25.0292C22.6169 25.2439 22.7391 25.5002 22.8157 25.7828C22.8922 26.0653 22.9217 26.3684 22.9021 26.674C22.8826 26.9795 22.8146 27.2814 22.7021 27.5615C22.5896 27.8417 22.4349 28.0944 22.2472 28.3048C22.0595 28.5151 21.8427 28.6787 21.6096 28.7858C21.3765 28.893 21.1319 28.9415 20.8903 28.9285C20.6488 28.9155 20.4152 28.8413 20.2034 28.7102C19.9917 28.5791 19.8061 28.3938 19.6578 28.1654L12.9392 18.5382C12.7881 18.3166 12.5688 18.1859 12.3296 18.1748C12.0903 18.1637 11.8506 18.2732 11.6632 18.4791C11.4758 18.685 11.3561 18.9706 11.3304 19.2729C11.3048 19.5752 11.3752 19.8695 11.5262 20.0912L16.2533 26.8711C16.4098 27.087 16.5282 27.3431 16.6016 27.6243C16.675 27.9056 16.702 28.2064 16.6809 28.5092C16.6598 28.812 16.5911 29.1108 16.4788 29.388C16.3664 29.6651 16.2128 29.9152 16.0267 30.1236C15.8407 30.332 15.626 30.4946 15.3953 30.6017C15.1645 30.7089 14.9222 30.7585 14.6826 30.7477C14.443 30.7369 14.2109 30.6659 13.9999 30.5388C13.7888 30.4118 13.603 30.2312 13.4533 30.0077L7.20164 21.041C7.12597 20.9323 7.03292 20.8449 6.92779 20.7839C6.82266 20.7229 6.70752 20.6894 6.58894 20.6854C6.47036 20.6813 6.35066 20.7068 6.23668 20.7604C6.1227 20.814 6.01668 20.8946 5.92465 20.9976C5.83263 21.1006 5.75641 21.224 5.70034 21.3607C5.64428 21.4975 5.60948 21.645 5.59791 21.7947C5.58635 21.9444 5.59826 22.0934 5.63295 22.2333C5.66765 22.3731 5.72445 22.5011 5.80012 22.6098L12.7164 32.5317C12.8678 32.749 12.9814 33.0048 13.0508 33.2844C13.1202 33.564 13.144 33.8619 13.121 34.1612C13.0979 34.4605 13.0284 34.7553 12.9163 35.0288C12.8043 35.3023 12.6519 35.549 12.468 35.755C12.284 35.961 12.0721 36.1222 11.8442 36.2293C11.6164 36.3365 11.3771 36.3875 11.14 36.3795C10.9029 36.3715 10.6727 36.3046 10.4625 36.1827C10.2523 36.0607 10.0662 35.8861 9.91487 35.6688L6.07398 30.1549C5.99913 30.0431 5.90623 29.9529 5.80069 29.8893C5.69516 29.8258 5.5791 29.7903 5.45931 29.7849C5.33952 29.7795 5.21839 29.8043 5.10299 29.8579C4.9876 29.9115 4.88026 29.9927 4.78725 30.0969C4.69423 30.2011 4.6174 30.3262 4.56124 30.4648C4.50509 30.6034 4.47073 30.7527 4.46018 30.9041C4.44964 31.0556 4.46311 31.206 4.49981 31.3466C4.53651 31.4872 4.59571 31.6153 4.67395 31.7232L11.3958 41.3745C12.5353 43.0099 14.0598 44.1487 15.7764 44.6469C17.4931 45.1452 19.3248 44.9805 21.0401 44.1737C22.7553 43.3668 24.2771 41.9541 25.413 40.1141C26.5485 38.2746 27.2474 36.0907 27.4214 33.8382C27.4214 33.838 27.4211 33.838 27.4211 33.8382V33.8382Z" fill="black"/>
</svg>
